<?xml version="1.0" encoding="utf-8"?>
<!-- Generator: Adobe Illustrator 16.2.1, SVG Export Plug-In . SVG Version: 6.00 Build 0)  -->
<!DOCTYPE svg PUBLIC "-//W3C//DTD SVG 1.1//EN" "http://www.w3.org/Graphics/SVG/1.1/DTD/svg11.dtd">
<svg version="1.1"
	 id="svg4159" xmlns:dc="http://purl.org/dc/elements/1.1/" xmlns:cc="http://creativecommons.org/ns#" xmlns:rdf="http://www.w3.org/1999/02/22-rdf-syntax-ns#" xmlns:svg="http://www.w3.org/2000/svg" xmlns:sodipodi="http://sodipodi.sourceforge.net/DTD/sodipodi-0.dtd" xmlns:inkscape="http://www.inkscape.org/namespaces/inkscape" sodipodi:docname="stopwatch.svg" inkscape:version="0.48.3.1 r9886"
	 xmlns="http://www.w3.org/2000/svg" xmlns:xlink="http://www.w3.org/1999/xlink" x="0px" y="0px" width="979.682px"
	 height="1178.75px" viewBox="0 0 979.682 1178.75" enable-background="new 0 0 979.682 1178.75" xml:space="preserve">
<sodipodi:namedview  fit-margin-left="0" fit-margin-top="0" showgrid="false" inkscape:cy="165.22382" inkscape:cx="1340.0927" inkscape:zoom="0.35" borderopacity="1.0" bordercolor="#666666" pagecolor="#ffffff" id="base" inkscape:window-maximized="1" inkscape:window-y="24" inkscape:window-x="65" inkscape:window-height="1056" inkscape:window-width="1855" fit-margin-bottom="0" inkscape:current-layer="layer1" inkscape:document-units="px" inkscape:pageopacity="0.0" fit-margin-right="0" inkscape:pageshadow="2">
	</sodipodi:namedview>
<path id="path3213" sodipodi:ry="24.748737" sodipodi:rx="24.748737" sodipodi:cy="28.257164" sodipodi:cx="-47.603439" sodipodi:type="arc" fill="none" stroke="#000000" stroke-width="24" d="
	M942.857,689.04c0,250.292-202.901,453.194-453.194,453.194c-250.292,0-453.194-202.902-453.194-453.194
	s202.902-453.194,453.194-453.194C739.956,235.846,942.857,438.748,942.857,689.04L942.857,689.04z"/>
<g id="g4013" transform="matrix(18.311809,0,0,18.311809,396.27582,-17698.548)" display="none">
	<g id="g4017" display="inline">
		<path id="rect4009" d="M1.312,966.51h7.324c0.697,0,1.263,0.565,1.263,1.263v5.808c0,0.697-0.565,1.263-1.263,1.263H1.312
			c-0.697,0-1.263-0.565-1.263-1.263v-5.808C0.049,967.076,0.614,966.51,1.312,966.51z"/>
		<rect id="rect4011" x="3.08" y="974.655" width="3.788" height="2.904"/>
	</g>
</g>
<g id="g4021" transform="matrix(9.1687373,-9.1687373,9.1687373,9.1687373,-9079.1557,-9297.1054)" inkscape:transform-center-x="290.67937" inkscape:transform-center-y="-290.67955">
	<g id="g4023">
		<path id="rect4025" d="M-24.902,1020.696l6.313-0.233c0.601-0.022,1.071,0.447,1.048,1.048l-0.185,5.007
			c-0.022,0.601-0.528,1.106-1.129,1.129l-6.313,0.233c-0.601,0.022-1.07-0.447-1.048-1.048l0.185-5.007
			C-26.008,1021.224-25.503,1020.718-24.902,1020.696z"/>
		<polygon id="rect4027" points="-23.637,1027.661 -20.372,1027.54 -20.464,1030.043 -23.73,1030.164 		"/>
	</g>
</g>
<g id="g4243">
	
		<path id="path4029" sodipodi:ry="24.748737" sodipodi:rx="24.748737" sodipodi:cy="28.257164" sodipodi:cx="-47.603439" sodipodi:type="arc" fill="none" stroke="#000000" stroke-width="25.4531" d="
		M525.273,689.04c0.008,19.667-15.929,35.616-35.596,35.624s-35.616-15.929-35.624-35.596c0-0.01,0-0.019,0-0.028
		c-0.001-19.667,15.942-35.61,35.609-35.61C509.329,653.429,525.273,669.372,525.273,689.04L525.273,689.04z"/>
	<path id="path4031" inkscape:connector-curvature="0" sodipodi:nodetypes="cccccc" stroke="#000000" stroke-width="14.1365" d="
		M476.205,637.74l6.958-253.525l6.792-13.013l6.571,13.013l6.5,253.525H476.205z"/>
</g>
<path id="path4061" inkscape:connector-curvature="0" inkscape:transform-center-y="-371.65966" fill="none" stroke="#000000" stroke-width="9.1559" d="
	M489.779,294.691v44.105"/>
<path id="path4065" inkscape:connector-curvature="0" inkscape:transform-center-x="-371.65966" fill="none" stroke="#000000" stroke-width="9.1559" d="
	M883.491,688.404h-44.105"/>
<path id="path4067" inkscape:connector-curvature="0" inkscape:transform-center-y="371.65958" fill="none" stroke="#000000" stroke-width="9.1559" d="
	M489.779,1082.116v-44.105"/>
<path id="path4069" inkscape:connector-curvature="0" inkscape:transform-center-x="371.65958" fill="none" stroke="#000000" stroke-width="9.1559" d="
	M96.066,688.404h44.105"/>
<path id="path4071" inkscape:connector-curvature="0" inkscape:transform-center-x="-185.82985" inkscape:transform-center-y="-321.86676" fill="none" stroke="#000000" stroke-width="9.1559" d="
	M686.636,347.439l-22.053,38.196"/>
<path id="path4073" inkscape:connector-curvature="0" inkscape:transform-center-x="-321.86673" inkscape:transform-center-y="-185.8298" fill="none" stroke="#000000" stroke-width="9.1559" d="
	M830.744,491.548l-38.196,22.053"/>
<path id="path4075" inkscape:connector-curvature="0" inkscape:transform-center-x="-321.86669" inkscape:transform-center-y="185.8298" fill="none" stroke="#000000" stroke-width="9.1559" d="
	M830.744,885.26l-38.196-22.053"/>
<path id="path4077" inkscape:connector-curvature="0" inkscape:transform-center-x="-185.82983" inkscape:transform-center-y="321.86666" fill="none" stroke="#000000" stroke-width="9.1559" d="
	M686.636,1029.369l-22.053-38.197"/>
<path id="path4079" inkscape:connector-curvature="0" inkscape:transform-center-x="185.82978" inkscape:transform-center-y="321.86666" fill="none" stroke="#000000" stroke-width="9.1559" d="
	M292.923,1029.369l22.053-38.197"/>
<path id="path4081" inkscape:connector-curvature="0" inkscape:transform-center-x="321.86667" inkscape:transform-center-y="185.8298" fill="none" stroke="#000000" stroke-width="9.1559" d="
	M148.814,885.26l38.197-22.053"/>
<path id="path4083" inkscape:connector-curvature="0" inkscape:transform-center-x="321.86665" inkscape:transform-center-y="-185.82988" fill="none" stroke="#000000" stroke-width="9.1559" d="
	M148.814,491.548l38.196,22.053"/>
<path id="path4085" inkscape:connector-curvature="0" inkscape:transform-center-x="185.82973" inkscape:transform-center-y="-321.86666" fill="none" stroke="#000000" stroke-width="9.1559" d="
	M292.923,347.439l22.053,38.197"/>
<path id="path4087" inkscape:connector-curvature="0" inkscape:transform-center-x="185.82973" inkscape:transform-center-y="-321.86666" fill="none" stroke="#000000" stroke-width="9.1559" d="
	M292.923,347.439l22.053,38.197"/>
</svg>
