<?xml version="1.0" encoding="utf-8"?>
<!-- Generator: Adobe Illustrator 16.2.1, SVG Export Plug-In . SVG Version: 6.00 Build 0)  -->
<!DOCTYPE svg PUBLIC "-//W3C//DTD SVG 1.1//EN" "http://www.w3.org/Graphics/SVG/1.1/DTD/svg11.dtd">
<svg version="1.1"
	 id="svg4159" xmlns:dc="http://purl.org/dc/elements/1.1/" xmlns:cc="http://creativecommons.org/ns#" xmlns:rdf="http://www.w3.org/1999/02/22-rdf-syntax-ns#" xmlns:svg="http://www.w3.org/2000/svg" xmlns:sodipodi="http://sodipodi.sourceforge.net/DTD/sodipodi-0.dtd" xmlns:inkscape="http://www.inkscape.org/namespaces/inkscape" inkscape:version="0.48.3.1 r9886" sodipodi:docname="stopwatch.svg"
	 xmlns="http://www.w3.org/2000/svg" xmlns:xlink="http://www.w3.org/1999/xlink" x="0px" y="0px" width="1178.76px"
	 height="1178.76px" viewBox="-357.039 364.495 1178.76 1178.76" enable-background="new -357.039 364.495 1178.76 1178.76"
	 xml:space="preserve">
<sodipodi:namedview  id="base" pagecolor="#ffffff" bordercolor="#666666" borderopacity="1.0" inkscape:zoom="0.35" inkscape:cx="1340.0927" inkscape:cy="165.22382" showgrid="false" fit-margin-top="0" fit-margin-left="0" inkscape:pageshadow="2" fit-margin-right="0" inkscape:pageopacity="0.0" inkscape:document-units="px" inkscape:window-x="65" inkscape:current-layer="layer1" inkscape:window-y="24" fit-margin-bottom="0" inkscape:window-maximized="1" inkscape:window-width="1855" inkscape:window-height="1056">
	</sodipodi:namedview>
<g id="g4013" transform="matrix(18.311809,0,0,18.311809,396.27582,-17698.548)" display="none">
	<g id="g4017" display="inline">
		<path id="rect4009" d="M1.312,966.51h7.324c0.697,0,1.263,0.565,1.263,1.263v5.808c0,0.697-0.565,1.263-1.263,1.263H1.312
			c-0.697,0-1.263-0.565-1.263-1.263v-5.808C0.049,967.076,0.614,966.51,1.312,966.51z"/>
		<rect id="rect4011" x="3.08" y="974.655" width="3.788" height="2.904"/>
	</g>
</g>
<g>
	
		<path id="path3213" sodipodi:type="arc" sodipodi:cx="-47.603439" sodipodi:cy="28.257164" sodipodi:rx="24.748737" sodipodi:ry="24.748737" fill="none" stroke="#000000" stroke-width="36" d="
		M675.534,958.926c0,242.102-198.424,438.365-443.193,438.365s-443.194-196.264-443.194-438.365s198.425-438.364,443.194-438.364
		S675.534,716.824,675.534,958.926L675.534,958.926z"/>
	
		<g id="g4021" transform="matrix(9.1687373,-9.1687373,9.1687373,9.1687373,-9079.1557,-9297.1054)" inkscape:transform-center-y="-290.67955" inkscape:transform-center-x="290.67937">
		<g id="g4023">
			<path id="rect4025" d="M-53.837,1022.621l6.139-0.193c0.584-0.018,1.044,0.44,1.025,1.025l-0.153,4.869
				c-0.018,0.584-0.508,1.073-1.092,1.092l-6.139,0.193c-0.584,0.018-1.043-0.441-1.025-1.025l0.153-4.869
				C-54.91,1023.129-54.421,1022.64-53.837,1022.621z"/>
			<polygon id="rect4027" points="-52.57,1029.402 -49.395,1029.302 -49.471,1031.736 -52.647,1031.836 			"/>
		</g>
	</g>
	<g id="g4243">
		
			<path id="path4029" sodipodi:type="arc" sodipodi:cx="-47.603439" sodipodi:cy="28.257164" sodipodi:rx="24.748737" sodipodi:ry="24.748737" fill="none" stroke="#000000" stroke-width="25.4531" d="
			M267.165,958.926c0.008,19.023-15.578,34.451-34.811,34.457c-19.233,0.008-34.831-15.406-34.839-34.43c0-0.012,0-0.02,0-0.027
			c-0.001-19.023,15.591-34.445,34.824-34.445C251.573,924.479,267.165,939.9,267.165,958.926L267.165,958.926z"/>
		<path id="path4031" sodipodi:nodetypes="cccccc" inkscape:connector-curvature="0" stroke="#000000" stroke-width="14.1365" d="
			M219.18,909.305l6.805-245.23l6.642-12.586l6.427,12.586l6.356,245.23H219.18z"/>
	</g>
	
		<path id="path4061" inkscape:connector-curvature="0" inkscape:transform-center-y="-371.65966" fill="none" stroke="#000000" stroke-width="20" d="
		M232.454,577.48v42.662"/>
	
		<path id="path4065" inkscape:connector-curvature="0" inkscape:transform-center-x="-371.65966" fill="none" stroke="#000000" stroke-width="20" d="
		M617.478,958.311h-43.131"/>
	
		<path id="path4067" inkscape:connector-curvature="0" inkscape:transform-center-y="371.65958" fill="none" stroke="#000000" stroke-width="20" d="
		M232.454,1339.139v-42.662"/>
	
		<path id="path4069" inkscape:connector-curvature="0" inkscape:transform-center-x="371.65958" fill="none" stroke="#000000" stroke-width="20" d="
		M-152.571,958.311h43.132"/>
	
		<path id="path4071" inkscape:connector-curvature="0" inkscape:transform-center-y="-321.86676" inkscape:transform-center-x="-185.82985" fill="none" stroke="#000000" stroke-width="20" d="
		M424.966,628.502l-21.564,36.945"/>
	
		<path id="path4073" inkscape:connector-curvature="0" inkscape:transform-center-y="-185.8298" inkscape:transform-center-x="-321.86673" fill="none" stroke="#000000" stroke-width="20" d="
		M565.896,767.896l-37.354,21.33"/>
	
		<path id="path4075" inkscape:connector-curvature="0" inkscape:transform-center-y="185.8298" inkscape:transform-center-x="-321.86669" fill="none" stroke="#000000" stroke-width="20" d="
		M565.896,1148.725l-37.354-21.332"/>
	
		<path id="path4077" inkscape:connector-curvature="0" inkscape:transform-center-y="321.86666" inkscape:transform-center-x="-185.82983" fill="none" stroke="#000000" stroke-width="20" d="
		M424.966,1288.119l-21.564-36.947"/>
	
		<path id="path4079" inkscape:connector-curvature="0" inkscape:transform-center-y="321.86666" inkscape:transform-center-x="185.82978" fill="none" stroke="#000000" stroke-width="20" d="
		M39.941,1288.119l21.566-36.947"/>
	
		<path id="path4081" inkscape:connector-curvature="0" inkscape:transform-center-y="185.8298" inkscape:transform-center-x="321.86667" fill="none" stroke="#000000" stroke-width="20" d="
		M-100.987,1148.725l37.354-21.332"/>
	
		<path id="path4083" inkscape:connector-curvature="0" inkscape:transform-center-y="-185.82988" inkscape:transform-center-x="321.86665" fill="none" stroke="#000000" stroke-width="20" d="
		M-100.987,767.896l37.353,21.33"/>
	
		<path id="path4085" inkscape:connector-curvature="0" inkscape:transform-center-y="-321.86666" inkscape:transform-center-x="185.82973" fill="none" stroke="#000000" stroke-width="9.1559" d="
		M39.941,628.502l21.566,36.947"/>
	
		<path id="path4087" inkscape:connector-curvature="0" inkscape:transform-center-y="-321.86666" inkscape:transform-center-x="185.82973" fill="none" stroke="#000000" stroke-width="20" d="
		M39.941,628.502l21.566,36.947"/>
</g>
</svg>
